<svg width="24" height="26" viewBox="0 0 24 26" fill="none" xmlns="http://www.w3.org/2000/svg">
<g clip-path="url(#clip0_339_3287)">
<path d="M21.3061 2.82107C20.6786 2.23942 18.1377 0.395 12.482 0.37204C12.482 0.37204 5.80847 -0.0335702 2.53291 2.95117C0.719108 4.76497 0.0838937 7.41296 0.0150152 10.6962C-0.0538634 13.9794 -0.138049 20.1325 5.79316 21.8009V24.3494C5.79316 24.3494 5.79316 25.3826 6.43603 25.5893C7.25492 25.8495 7.73707 25.0612 8.52534 24.2193C8.95392 23.7525 9.55087 23.0714 9.99476 22.5509C12.5182 22.7857 15.0631 22.5995 17.5255 21.9999C18.3444 21.7321 22.9822 21.1428 23.7399 14.982C24.5434 8.63748 23.3878 4.62721 21.3061 2.82107ZM21.9949 14.5304C21.3521 19.6657 17.5944 19.9871 16.9056 20.2091C14.7869 20.7307 12.6 20.9192 10.4233 20.7678C10.4233 20.7678 7.85186 23.829 7.04828 24.6709C7.00281 24.7227 6.94606 24.7635 6.88238 24.7901C6.8187 24.8166 6.74979 24.8282 6.68093 24.8239C6.54317 24.7857 6.50491 24.625 6.50491 24.3877V20.1555C1.48442 18.755 1.77525 13.5202 1.83647 10.7804C1.8977 8.04052 2.41046 5.79049 3.94109 4.27516C6.68858 1.78788 12.3596 2.15523 12.3596 2.15523C17.1428 2.15523 19.4388 3.61699 19.9668 4.09914C21.75 5.62978 22.6455 9.22676 21.9949 14.5304Z" fill="white"/>
<path d="M14.8087 10.8721C14.7266 10.8704 14.6481 10.838 14.5886 10.7814C14.5292 10.7247 14.493 10.6479 14.4873 10.566C14.5235 10.1621 14.3979 9.76045 14.1382 9.44909C13.8785 9.13773 13.5059 8.94214 13.1021 8.90523C13.0283 8.8976 12.9539 8.8976 12.8801 8.90523C12.8382 8.9033 12.7971 8.89298 12.7593 8.87489C12.7214 8.8568 12.6876 8.8313 12.6598 8.79991C12.6319 8.76851 12.6107 8.73186 12.5973 8.69211C12.5839 8.65236 12.5786 8.61033 12.5817 8.56849C12.5836 8.52626 12.5939 8.48484 12.6119 8.44659C12.6299 8.40833 12.6553 8.37401 12.6865 8.34557C12.7178 8.31714 12.7544 8.29516 12.7942 8.28088C12.834 8.2666 12.8762 8.26031 12.9184 8.26237C13.2009 8.25318 13.4824 8.29974 13.7468 8.39941C14.0112 8.49907 14.2534 8.64987 14.4596 8.8432C14.6657 9.03653 14.8317 9.26859 14.9481 9.52611C15.0645 9.78363 15.1289 10.0616 15.1378 10.344C15.1417 10.4154 15.1417 10.4869 15.1378 10.5583C15.1399 10.6005 15.1336 10.6427 15.1193 10.6825C15.105 10.7223 15.0831 10.7589 15.0546 10.7902C15.0262 10.8215 14.9919 10.8468 14.9536 10.8648C14.9154 10.8828 14.8739 10.8931 14.8317 10.895L14.8087 10.8721Z" fill="white"/>
<path d="M16.454 11.4231C16.4118 11.4221 16.3702 11.4128 16.3316 11.3957C16.293 11.3786 16.2581 11.3541 16.229 11.3236C16.1998 11.293 16.177 11.257 16.1618 11.2176C16.1465 11.1782 16.1392 11.1362 16.1403 11.094C16.1708 10.6025 16.1019 10.1099 15.9375 9.64565C15.7731 9.18143 15.5167 8.75517 15.1836 8.39244C14.4517 7.63557 13.4505 7.19824 12.3979 7.17558C12.3126 7.17558 12.2308 7.14171 12.1706 7.08143C12.1103 7.02115 12.0764 6.9394 12.0764 6.85415C12.0764 6.7689 12.1103 6.68714 12.1706 6.62686C12.2308 6.56658 12.3126 6.53271 12.3979 6.53271H12.4438C13.6594 6.565 14.8137 7.07346 15.6581 7.94856C16.0399 8.37165 16.3344 8.86592 16.5249 9.40305C16.7153 9.94018 16.7978 10.5096 16.7678 11.0787C16.772 11.1199 16.768 11.1616 16.7561 11.2013C16.7441 11.241 16.7244 11.2779 16.698 11.3099C16.6717 11.342 16.6393 11.3684 16.6027 11.3879C16.566 11.4073 16.5259 11.4193 16.4846 11.4231H16.454Z" fill="white"/>
<path d="M18.1301 12.0813C18.0448 12.0813 17.9631 12.0474 17.9028 11.9871C17.8425 11.9268 17.8086 11.8451 17.8086 11.7598C17.8536 10.9171 17.7238 10.0741 17.4275 9.28394C17.1312 8.49373 16.6747 7.77332 16.0867 7.16793C15.5262 6.62167 14.8628 6.1922 14.1349 5.90447C13.4071 5.61675 12.6293 5.47651 11.8468 5.49188C11.7616 5.49188 11.6798 5.45802 11.6195 5.39774C11.5593 5.33746 11.5254 5.2557 11.5254 5.17045C11.5254 5.0852 11.5593 5.00345 11.6195 4.94317C11.6798 4.88289 11.7616 4.84902 11.8468 4.84902C12.7116 4.83488 13.5706 4.99192 14.3744 5.31109C15.1783 5.63026 15.911 6.10525 16.5306 6.70874C17.1739 7.3716 17.6754 8.15868 18.0044 9.02188C18.3334 9.88508 18.4829 10.8063 18.4439 11.7292C18.4439 11.8145 18.41 11.8962 18.3497 11.9565C18.2894 12.0168 18.2077 12.0507 18.1224 12.0507L18.1301 12.0813Z" fill="white"/>
<path d="M12.9643 14.8368C13.0912 14.8468 13.2187 14.8286 13.3378 14.7836C13.4568 14.7387 13.5645 14.668 13.6531 14.5766L14.1276 13.9796C14.29 13.8009 14.5104 13.6852 14.7498 13.653C14.9892 13.6208 15.2323 13.6741 15.4363 13.8036C15.8419 14.0409 16.2016 14.2934 16.6148 14.5689C17.0281 14.8444 17.7016 15.4414 17.7016 15.449C17.8729 15.5876 17.9871 15.7844 18.0224 16.0018C18.0577 16.2192 18.0116 16.442 17.8929 16.6276C17.6321 17.0797 17.3015 17.4878 16.9133 17.8368C16.632 18.09 16.2841 18.2573 15.9108 18.319H15.7653C15.6226 18.3218 15.4804 18.3011 15.3444 18.2578C14.3903 17.9285 13.4723 17.5028 12.6046 16.9873C11.7965 16.5443 11.0284 16.0322 10.3086 15.4567C9.94639 15.1713 9.60139 14.8646 9.27546 14.5383C8.95403 14.2092 8.6479 13.8572 8.35708 13.4975C7.78331 12.7765 7.27129 12.0085 6.82645 11.2015C6.30768 10.3355 5.88184 9.41716 5.55602 8.4617C5.51017 8.32347 5.48691 8.17876 5.48714 8.03312C5.47955 7.98495 5.47955 7.93588 5.48714 7.88771C5.54732 7.51613 5.71492 7.17027 5.96929 6.8928C6.25358 6.44867 6.60762 6.05328 7.01778 5.72186C7.20504 5.60433 7.42866 5.55894 7.64692 5.59414C7.86519 5.62935 8.0632 5.74275 8.20401 5.91319L9.07648 6.99994C9.35308 7.37842 9.60857 7.77189 9.84179 8.17854C9.968 8.38538 10.0187 8.62954 9.98518 8.86952C9.95169 9.1095 9.83612 9.33047 9.65812 9.49487L9.06117 9.96171C8.96961 10.0518 8.89887 10.1608 8.85392 10.2811C8.80897 10.4014 8.79089 10.5301 8.80096 10.6582C9.09196 11.6463 9.6252 12.5461 10.3523 13.2759C11.0793 14.0056 11.9772 14.5422 12.9643 14.8368Z" fill="white"/>
</g>
<defs>
<clipPath id="clip0_339_3287">
<rect width="24.0004" height="25.2861" fill="white" transform="translate(-0.000244141 0.356934)"/>
</clipPath>
</defs>
</svg>
