<svg width="121" height="24" viewBox="0 0 121 24" fill="none" xmlns="http://www.w3.org/2000/svg">
<path d="M0.752 18.5V0.763999H4.664L10.016 14.756L15.296 0.763999H19.232V18.5H16.448V4.364L11.144 18.5H8.84L3.536 4.364V18.5H0.752ZM32.2884 14.444H35.2404C34.3764 17.012 31.7844 18.812 28.8804 18.812C24.8724 18.812 21.7764 15.788 21.7764 11.9C21.7764 8.012 24.8244 4.94 28.7124 4.94C32.6004 4.94 35.6004 7.988 35.6004 11.948C35.6004 12.38 35.5524 12.644 35.4804 13.028H24.6564C24.9684 14.972 26.6484 16.316 28.8084 16.316C30.3684 16.316 31.4964 15.668 32.2884 14.444ZM24.6084 10.604H32.8884C32.4084 8.612 30.8964 7.436 28.7364 7.436C26.6244 7.436 25.1124 8.612 24.6084 10.604ZM37.3925 19.364H40.3925C41.4485 20.804 42.4805 21.332 44.2325 21.332C46.8725 21.332 48.3125 19.82 48.3125 17.036V16.436C47.1365 18.092 45.7685 18.812 43.7285 18.812C39.9125 18.812 37.1045 15.86 37.1045 11.828C37.1045 7.892 39.9125 4.94 43.7045 4.94C45.7205 4.94 47.2085 5.66 48.3125 7.148V5.252H50.9285V16.028C50.9285 21.164 48.6485 23.756 44.1605 23.756C40.8965 23.756 38.4485 22.172 37.3925 19.364ZM44.0165 16.316C46.5125 16.316 48.2165 14.492 48.2165 11.828C48.2165 9.26 46.4405 7.436 43.8965 7.436C41.5205 7.436 39.8405 9.284 39.8405 11.876C39.8405 14.516 41.5445 16.316 44.0165 16.316ZM53.0889 11.924C53.0889 7.892 55.9689 4.94 59.9049 4.94C61.9449 4.94 63.3609 5.636 64.5129 7.22V5.252H67.0569V18.5H64.5129V16.58C63.2169 18.164 61.8969 18.812 59.9049 18.812C55.9449 18.812 53.0889 15.908 53.0889 11.924ZM55.8249 11.948C55.8249 14.468 57.6729 16.316 60.1929 16.316C62.6889 16.316 64.4649 14.468 64.4649 11.9C64.4649 9.308 62.6169 7.436 60.0729 7.436C57.6489 7.436 55.8249 9.38 55.8249 11.948ZM69.2139 11.876C69.2139 7.916 72.1659 4.844 75.9579 4.844C77.7579 4.844 79.3899 5.516 80.4459 6.74V0.763999H83.1819V18.5H80.6379V16.556C79.3179 18.14 77.9739 18.812 76.0299 18.812C72.1659 18.812 69.2139 15.812 69.2139 11.876ZM71.9499 11.804C71.9499 14.324 73.8939 16.316 76.3659 16.316C78.7419 16.316 80.6379 14.324 80.6379 11.828C80.6379 9.26 78.7419 7.34 76.1979 7.34C73.8219 7.34 71.9499 9.284 71.9499 11.804ZM95.8509 14.444H98.8029C97.9389 17.012 95.3469 18.812 92.4429 18.812C88.4349 18.812 85.3389 15.788 85.3389 11.9C85.3389 8.012 88.3869 4.94 92.2749 4.94C96.1629 4.94 99.1629 7.988 99.1629 11.948C99.1629 12.38 99.1149 12.644 99.0429 13.028H88.2189C88.5309 14.972 90.2109 16.316 92.3709 16.316C93.9309 16.316 95.0589 15.668 95.8509 14.444ZM88.1709 10.604H96.4509C95.9709 8.612 94.4589 7.436 92.2989 7.436C90.1869 7.436 88.6749 8.612 88.1709 10.604ZM100.667 11.924C100.667 7.892 103.547 4.94 107.483 4.94C109.523 4.94 110.939 5.636 112.091 7.22V5.252H114.635V18.5H112.091V16.58C110.795 18.164 109.475 18.812 107.483 18.812C103.523 18.812 100.667 15.908 100.667 11.924ZM103.403 11.948C103.403 14.468 105.251 16.316 107.771 16.316C110.267 16.316 112.043 14.468 112.043 11.9C112.043 9.308 110.195 7.436 107.651 7.436C105.227 7.436 103.403 9.38 103.403 11.948ZM117.368 18.5V0.763999H120.08V18.5H117.368Z" fill="#242424"/>
</svg>
