<svg width="22" height="22" viewBox="0 0 22 22" fill="none" xmlns="http://www.w3.org/2000/svg">
<path d="M1.54 1.54C2.914e-07 3.09467 0 5.58067 0 10.56V11.44C0 16.412 2.914e-07 18.898 1.54 20.46C3.09467 22 5.58067 22 10.56 22H11.44C16.412 22 18.898 22 20.46 20.46C22 18.9053 22 16.4193 22 11.44V10.56C22 5.588 22 3.102 20.46 1.54C18.9053 2.914e-07 16.4193 0 11.44 0H10.56C5.588 0 3.102 2.914e-07 1.54 1.54ZM3.71067 6.69533H6.23333C6.314 10.89 8.162 12.6647 9.62867 13.0313V6.69533H11.9973V10.3107C13.442 10.1567 14.9673 8.50667 15.4807 6.688H17.842C17.6495 7.62945 17.2649 8.52109 16.7123 9.30719C16.1596 10.0933 15.4508 10.7569 14.63 11.2567C15.546 11.7124 16.3549 12.3572 17.0034 13.1485C17.6518 13.9398 18.1251 14.8597 18.392 15.8473H15.7887C15.2313 14.1093 13.838 12.76 11.9973 12.5767V15.8473H11.704C6.688 15.8473 3.828 12.4153 3.71067 6.69533Z" fill="white"/>
</svg>
